<?xml version="1.0" encoding="UTF-8"?>
<!DOCTYPE svg PUBLIC "-//W3C//DTD SVG 1.1//EN" "http://www.w3.org/Graphics/SVG/1.1/DTD/svg11.dtd">
<!-- Creator: CorelDRAW -->
<svg xmlns="http://www.w3.org/2000/svg" xml:space="preserve" width="8.26772in" height="11.6929in" style="shape-rendering:geometricPrecision; text-rendering:geometricPrecision; image-rendering:optimizeQuality; fill-rule:evenodd; clip-rule:evenodd"
viewBox="0 0 8.26772 11.6929"
 xmlns:xlink="http://www.w3.org/1999/xlink">
 <defs>
  <style type="text/css">
   <![CDATA[
    .str0 {stroke:#373435;stroke-width:0.125;stroke-linecap:round;stroke-linejoin:round}
    .fil0 {fill:none}
    .fil5 {fill:#373435}
    .fil4 {fill:#5B437D}
    .fil2 {fill:#919395}
    .fil3 {fill:#CB92C1}
    .fil1 {fill:#AC66A8;fill-opacity:0.490196}
   ]]>
  </style>
 </defs>
 <g id="Layer_x0020_1">
  <metadata id="CorelCorpID_0Corel-Layer"/>
  <rect class="fil0" x="0.476265" y="2.25335" width="7.31519" height="6.84302"/>
  <g id="_467825032">
   <path id="_467825200" class="fil1" d="M3.71591 3.15306c0.127335,-0.152965 0.35813,-0.15902 0.510772,-0.0314606l2.31115 1.93144c0.0112244,-0.00205118 0.0224685,-0.00413386 0.0337598,-0.00627953 0.245421,-0.0466693 0.465709,-0.108343 0.633815,-0.17328 -0.121008,0.0788425 -0.342154,0.162783 -0.614689,0.230713 -0.667252,0.231228 -4.91344,0.897406 -5.7266,0.460906 0.180638,0.0377205 0.41137,0.0603543 0.662815,0.0603543 0.0449331,0 0.0892047,-0.000724409 0.13265,-0.00212598l2.05633 -2.47027z"/>
   <path id="_467824984" class="fil2" d="M6.67272 5.77608c-0.00861024,0.0700079 -0.0375827,0.138157 -0.087563,0.194697l-1.95258 2.2089c-0.131815,0.149118 -0.361654,0.163276 -0.510772,0.0314606l-2.20891 -1.95258c-0.0188661,-0.0166772 -0.0355591,-0.0349252 -0.0500827,-0.054378 1.57935,0.0584173 3.20768,-0.184524 4.80991,-0.428102z"/>
   <path id="_467826208" class="fil3" d="M3.83402 3.53889c0.127335,-0.152965 0.358409,-0.159496 0.510772,-0.0314606l2.26304 1.90176c0.260283,-0.0358031 0.512524,-0.0503701 0.747323,-0.19339 -0.179165,0.201531 -0.685575,0.274327 -0.759217,0.28848 -1.47361,0.308669 -3.0752,0.602079 -4.58463,0.602079 -0.395252,0 -0.739366,-0.0559134 -0.918024,-0.13848 0.180638,0.0377205 0.41137,0.0603543 0.662815,0.0603543l0.00572835 -1.9685e-005 2.0722 -2.48933z"/>
   <rect id="_467825680" class="fil4" x="3.95443" y="7.60512" width="0.582035" height="0.110677"/>
   <rect id="_467826448" class="fil4" x="3.95443" y="7.88534" width="0.582035" height="0.110677"/>
   <polygon id="_467825488" class="fil4" points="3.92492,3.92205 4.15539,3.10608 4.26043,3.10348 4.60981,3.88039 4.49935,3.87582 4.22365,3.22323 4.03538,3.91748 "/>
   <g>
    <path id="_467825080" class="fil0 str0" d="M1.54698 6.40846c0.231461,-1.34484 1.37197,-2.3253 2.70489,-2.3253 1.33292,0 2.47343,0.980461 2.70489,2.3253"/>
   </g>
   <rect class="fil5" x="1.37167" y="5.29545" width="5.76564" height="0.138094"/>
   <polygon class="fil5" points="4.18544,7.31678 4.18544,3.66301 4.32353,3.66301 4.32353,7.32147 4.36063,7.4959 4.14834,7.4959 "/>
  </g>
 </g>
</svg>
